# xmcd
#
# Track frame offsets:
#	150
#	16837
#	31906
#	58465
#	75171
#	104398
#	121224
#	138230
#	165459
#	195872
#	227363
#	247206
#	270980
#	285747
#	305660
#	320219
#
# Disc length: 4800 seconds
#
# Revision: 2
# Processed by: cddbd v1.5.2PL0 Copyright (c) Steve Scherf et al.
# Submitted via: EZCDAudioConverter 2.1.7.1
#
DISCID=d012be10
DTITLE=V/A - I'm A Freak, Baby... 2/3
DYEAR=2016
DGENRE=
TTITLE0=Writing On The Wall - Bogeyman
TTITLE1=Deep Purple - Fireball
TTITLE2=Jerusalem - Primitive Man
TTITLE3=Edgar Broughton Band - Love In The Rain
TTITLE4=Hellmet - Trust
TTITLE5=Second Hand - Rhubarb!
TTITLE6=Little Free Rock - Dream
TTITLE7=Iron Claw - Skullcrusher
TTITLE8=Dark - Zero Time
TTITLE9=Velvet Frogs - Jehovah
TTITLE10=The Move - Brontosaurus
TTITLE11=Stack Waddy - Bring It To Jerome
TTITLE12=Samuel Prody - Mr. Make Believe
TTITLE13=Bare Sole - Flash
TTITLE14=The Phoenix - Street Walking Woman
TTITLE15=Skid Row - Go, I'm Never Gonna Let You
EXTD=
EXTT0=
EXTT1=
EXTT2=
EXTT3=
EXTT4=
EXTT5=
EXTT6=
EXTT7=
EXTT8=
EXTT9=
EXTT10=
EXTT11=
EXTT12=
EXTT13=
EXTT14=
EXTT15=
PLAYORDER=
